<?xml version="1.0" standalone="no"?>
<!DOCTYPE svg PUBLIC "-//W3C//DTD SVG 20010904//EN"
 "http://www.w3.org/TR/2001/REC-SVG-20010904/DTD/svg10.dtd">
<svg version="1.0" xmlns="http://www.w3.org/2000/svg"
 width="100.000000pt" height="100.000000pt" viewBox="0 0 100.000000 100.000000"
 preserveAspectRatio="xMidYMid meet">
<metadata>
Created by potrace 1.14, written by Peter Selinger 2001-2017
</metadata>
<g transform="translate(0.000000,100.000000) scale(0.100000,-0.100000)"
fill="#000000" stroke="none">
<path d="M458 976 c-120 -64 -184 -100 -198 -111 -8 -7 -20 -14 -25 -16 -38
-14 -165 -93 -166 -102 -1 -7 -2 -120 -3 -251 l-1 -239 35 -22 c122 -78 386
-229 400 -228 18 2 384 207 413 231 15 14 17 39 17 257 0 277 11 244 -110 315
-41 24 -130 77 -197 116 l-122 73 -43 -23z"/>
</g>
</svg>
